<svg width="17" height="20" viewBox="0 0 17 20" fill="none" xmlns="http://www.w3.org/2000/svg">
<path d="M8.49998 9.13026C9.37249 9.13026 10.2254 8.87153 10.9509 8.38679C11.6763 7.90205 12.2418 7.21307 12.5757 6.40698C12.9096 5.60088 12.9969 4.71388 12.8267 3.85813C12.6565 3.00239 12.2363 2.21633 11.6194 1.59938C11.0024 0.982419 10.2164 0.562265 9.36062 0.392047C8.50488 0.221829 7.61787 0.309191 6.81178 0.643086C6.00568 0.976981 5.3167 1.54241 4.83196 2.26788C4.34722 2.99334 4.08849 3.84626 4.08849 4.71877C4.08849 5.88877 4.55327 7.01085 5.38059 7.83817C6.2079 8.66548 7.32998 9.13026 8.49998 9.13026ZM8.49998 1.56771C9.1232 1.56771 9.73243 1.75251 10.2506 2.09876C10.7688 2.445 11.1727 2.93713 11.4112 3.51291C11.6497 4.08869 11.7121 4.72227 11.5905 5.33351C11.4689 5.94476 11.1688 6.50623 10.7281 6.94691C10.2874 7.38759 9.72597 7.68771 9.11472 7.80929C8.50348 7.93087 7.8699 7.86847 7.29412 7.62998C6.71834 7.39148 6.22621 6.9876 5.87997 6.46941C5.53372 5.95122 5.34892 5.34199 5.34892 4.71877C5.34892 3.88306 5.6809 3.08157 6.27184 2.49063C6.86278 1.89969 7.66427 1.56771 8.49998 1.56771Z" fill="#575DFB"/>
<path d="M16.3587 13.7749C15.3481 12.7067 14.1302 11.8559 12.7795 11.2744C11.4288 10.6929 9.97368 10.393 8.50314 10.393C7.03259 10.393 5.57749 10.6929 4.2268 11.2744C2.87611 11.8559 1.6582 12.7067 0.647533 13.7749C0.428416 14.009 0.306721 14.3177 0.307218 14.6383V17.9532C0.307218 18.2875 0.440013 18.6081 0.676388 18.8445C0.912764 19.0809 1.23336 19.2137 1.56764 19.2137H15.4323C15.7666 19.2137 16.0872 19.0809 16.3236 18.8445C16.56 18.6081 16.6928 18.2875 16.6928 17.9532V14.6383C16.695 14.3186 16.5756 14.0099 16.3587 13.7749ZM15.4323 17.9532H1.56764V14.632C2.4608 13.6915 3.53598 12.9426 4.72776 12.4309C5.91953 11.9191 7.20298 11.6552 8.49999 11.6552C9.79699 11.6552 11.0804 11.9191 12.2722 12.4309C13.464 12.9426 14.5392 13.6915 15.4323 14.632V17.9532Z" fill="#575DFB"/>
<path d="M8.49998 9.13026C9.37249 9.13026 10.2254 8.87153 10.9509 8.38679C11.6763 7.90205 12.2418 7.21307 12.5757 6.40698C12.9096 5.60088 12.9969 4.71388 12.8267 3.85813C12.6565 3.00239 12.2363 2.21633 11.6194 1.59938C11.0024 0.982419 10.2164 0.562265 9.36062 0.392047C8.50488 0.221829 7.61787 0.309191 6.81178 0.643086C6.00568 0.976981 5.3167 1.54241 4.83196 2.26788C4.34722 2.99334 4.08849 3.84626 4.08849 4.71877C4.08849 5.88877 4.55327 7.01085 5.38059 7.83817C6.2079 8.66548 7.32998 9.13026 8.49998 9.13026ZM8.49998 1.56771C9.1232 1.56771 9.73243 1.75251 10.2506 2.09876C10.7688 2.445 11.1727 2.93713 11.4112 3.51291C11.6497 4.08869 11.7121 4.72227 11.5905 5.33351C11.4689 5.94476 11.1688 6.50623 10.7281 6.94691C10.2874 7.38759 9.72597 7.68771 9.11472 7.80929C8.50348 7.93087 7.8699 7.86847 7.29412 7.62998C6.71834 7.39148 6.22621 6.9876 5.87997 6.46941C5.53372 5.95122 5.34892 5.34199 5.34892 4.71877C5.34892 3.88306 5.6809 3.08157 6.27184 2.49063C6.86278 1.89969 7.66427 1.56771 8.49998 1.56771Z" stroke="#575DFB" stroke-width="0.6"/>
<path d="M16.3587 13.7749C15.3481 12.7067 14.1302 11.8559 12.7795 11.2744C11.4288 10.6929 9.97368 10.393 8.50314 10.393C7.03259 10.393 5.57749 10.6929 4.2268 11.2744C2.87611 11.8559 1.6582 12.7067 0.647533 13.7749C0.428416 14.009 0.306721 14.3177 0.307218 14.6383V17.9532C0.307218 18.2875 0.440013 18.6081 0.676388 18.8445C0.912764 19.0809 1.23336 19.2137 1.56764 19.2137H15.4323C15.7666 19.2137 16.0872 19.0809 16.3236 18.8445C16.56 18.6081 16.6928 18.2875 16.6928 17.9532V14.6383C16.695 14.3186 16.5756 14.0099 16.3587 13.7749ZM15.4323 17.9532H1.56764V14.632C2.4608 13.6915 3.53598 12.9426 4.72776 12.4309C5.91953 11.9191 7.20298 11.6552 8.49999 11.6552C9.79699 11.6552 11.0804 11.9191 12.2722 12.4309C13.464 12.9426 14.5392 13.6915 15.4323 14.632V17.9532Z" stroke="#575DFB" stroke-width="0.6"/>
</svg>
